PathFileType	4	(X/Y/Z)	/Users/itak/Documents/Research/Walk-IL/dataset/trc/00209_00009.trc
DataRate	CameraRate	NumFrames	NumMarkers	Units	OrigDataRate	OrigDataStartFrame	OrigNumFrames
100.000000	100.000000	4	53	mm	100.000000	530	707
Frame#	Time	RPSI			LPSI			L3			STRN			T10			C7			CLAV			RBAK			LBAK			LSHO			LUPA			LAEL			LAOL			LWTS			LWPS			LFRA			LIFD			LHPS			LHTS			RSHO			RUPA			RAEL			RAOL			RWTS			RWPS			RFRA			RIFD			RHTS			RHPS			RBHD			LFHD			RFHD			LBHD			LHIP			RHIP			RASI			LASI			LKNE			LTHI			LANK			LTIP			LTOE			LMT1			LMT5			LHEE			RKNE			RTHI			RANK			RTIP			RTOE			RMT1			RMT5			RHEE			
		X1	Y1	Z1	X2	Y2	Z2	X3	Y3	Z3	X4	Y4	Z4	X5	Y5	Z5	X6	Y6	Z6	X7	Y7	Z7	X8	Y8	Z8	X9	Y9	Z9	X10	Y10	Z10	X11	Y11	Z11	X12	Y12	Z12	X13	Y13	Z13	X14	Y14	Z14	X15	Y15	Z15	X16	Y16	Z16	X17	Y17	Z17	X18	Y18	Z18	X19	Y19	Z19	X20	Y20	Z20	X21	Y21	Z21	X22	Y22	Z22	X23	Y23	Z23	X24	Y24	Z24	X25	Y25	Z25	X26	Y26	Z26	X27	Y27	Z27	X28	Y28	Z28	X29	Y29	Z29	X30	Y30	Z30	X31	Y31	Z31	X32	Y32	Z32	X33	Y33	Z33	X34	Y34	Z34	X35	Y35	Z35	X36	Y36	Z36	X37	Y37	Z37	X38	Y38	Z38	X39	Y39	Z39	X40	Y40	Z40	X41	Y41	Z41	X42	Y42	Z42	X43	Y43	Z43	X44	Y44	Z44	X45	Y45	Z45	X46	Y46	Z46	X47	Y47	Z47	X48	Y48	Z48	X49	Y49	Z49	X50	Y50	Z50	X51	Y51	Z51	X52	Y52	Z52	X53	Y53	Z53	

531	5.3	175.6608123779297	1048.445678710938	-43.73308944702148	175.685302734375	1051.921508789062	-164.2662353515625	172.178466796875	1125.507690429688	-118.3327255249023	414.7636413574219	1316.6044921875	-125.4450225830078	164.2328796386719	1252.256225585938	-103.7580413818359	221.0532684326172	1515.496948242188	-101.4932708740234	386.3886413574219	1432.82421875	-118.5963363647461	152.3918151855469	1371.907592773438	-28.42811012268066	192.4473571777344	1481.375122070312	-211.0310211181641	276.8013916015625	1486.790283203125	-275.7213134765625	232.4205017089844	1374.032836914062	-353.8027038574219	219.3668975830078	1170.746948242188	-402.5418701171875	155.2835388183594	1156.367065429688	-343.8483581542969	289.6134338378906	923.9841918945312	-386.9175415039062	249.0330505371094	919.4013671875	-460.3496398925781	227.3788604736328	1064.7470703125	-430.9078369140625	265.843505859375	730.767578125	-412.5600891113281	253.1458740234375	829.1597290039062	-466.4671936035156	304.8249206542969	822.3243408203125	-422.2696533203125	293.6487426757812	1467.470581054688	59.67259216308594	282.8793334960938	1400.085205078125	125.3866729736328	289.8385620117188	1117.813232421875	162.5570831298828	246.9566192626953	1110.137329101562	78.53002166748047	440.5083312988281	919.29541015625	92.67298126220703	400.6300354003906	897.9102172851562	163.5935821533203	325.8228454589844	1051.676391601562	169.0344848632812	479.0919799804688	727.7587890625	80.23733520507812	495.2879943847656	803.3629150390625	97.0582275390625	451.8268737792969	795.9061889648438	154.8065948486328	257.1555480957031	1672.822875976562	-60.13901519775391	460.9413757324219	1720.874267578125	-149.0780029296875	457.5456848144531	1719.541137695312	-48.89041137695312	305.7974548339844	1681.772583007812	-191.1946411132812	272.9377136230469	984.7008666992188	-304.8741455078125	274.8741760253906	1009.002197265625	61.43844223022461	371.4949340820312	1047.43994140625	21.48997497558594	375.3667907714844	1028.547485351562	-260.418212890625	338.4486083984375	498.8232421875	-288.8105773925781	327.8017272949219	645.8697509765625	-305.3197937011719	-7.321724414825439	157.2207641601562	-233.9649810791016	171.7515258789062	335.7650451660156	-270.1149291992188	169.8234558105469	40.26752853393555	-205.7333221435547	120.0457534790039	73.27204895019531	-157.1742858886719	86.5433349609375	80.33371734619141	-265.4345092773438	-40.90665817260742	201.2817687988281	-176.5957336425781	359.3870239257812	519.63427734375	12.19536685943604	347.4136962890625	787.1550903320312	66.13118743896484	335.6078186035156	24.76590538024902	-41.36238861083984	377.3377685546875	402.5533447265625	-11.28678131103516	542.4498901367188	58.64142608642578	-79.83613586425781	487.34912109375	54.97385406494141	-125.2374877929688	446.4049072265625	29.86837577819824	-16.92702674865723	274.208251953125	29.64803504943848	-100.3974380493164	
532	5.31	178.5979919433594	1048.843383789062	-42.58700180053711	178.3151397705078	1052.232543945312	-163.1258850097656	174.9357604980469	1126.026000976562	-116.9922027587891	417.59814453125	1317.010620117188	-125.0800628662109	167.1343383789062	1252.690185546875	-102.2445755004883	224.0704650878906	1515.9130859375	-100.2315902709961	389.3089294433594	1433.253784179688	-118.1110458374023	155.8199310302734	1372.392333984375	-26.73678398132324	194.9066314697266	1481.75439453125	-209.6517486572266	279.0093078613281	1487.1923828125	-274.6911315917969	234.7226867675781	1374.341186523438	-352.7145690917969	222.7776184082031	1171.134521484375	-402.0748596191406	158.75732421875	1156.230102539062	-343.3488464355469	295.2381286621094	925.1171264648438	-386.8468017578125	254.7243499755859	920.1913452148438	-460.2686767578125	231.6034240722656	1065.268188476562	-430.6139831542969	274.2096252441406	731.7293701171875	-412.922119140625	259.9841003417969	830.046142578125	-466.5921630859375	311.8047485351562	823.8407592773438	-422.484375	297.5542602539062	1467.890747070312	60.56166458129883	287.3737182617188	1400.510864257812	126.3800354003906	295.5431823730469	1118.281127929688	163.5225830078125	252.1180572509766	1110.354736328125	79.66568756103516	446.2657775878906	919.9314575195312	93.29484558105469	406.7400817871094	898.684326171875	164.4919128417969	331.7517395019531	1052.29443359375	169.9664154052734	485.0376586914062	728.4081420898438	81.18491363525391	501.3077087402344	804.1231689453125	97.72414398193359	458.1526184082031	796.7567138671875	155.7299652099609	260.3885803222656	1673.2421875	-59.14479064941406	464.0130615234375	1721.22998046875	-148.3585815429688	460.8227844238281	1719.861938476562	-48.21049499511719	308.8154907226562	1682.258178710938	-190.2702026367188	275.3849487304688	985.2723999023438	-303.9770202636719	278.0567932128906	1009.40380859375	62.39783477783203	374.5922241210938	1047.894409179688	22.34182357788086	377.8818664550781	1029.127563476562	-259.6722106933594	344.9723205566406	499.8379211425781	-289.4575805664062	333.0379943847656	646.8355712890625	-305.6091003417969	0.1844365447759628	157.2316436767578	-232.9864349365234	178.3106384277344	336.7607421875	-270.0629272460938	179.4335327148438	42.96677780151367	-208.4154205322266	129.8034973144531	74.65494537353516	-158.819580078125	94.51941680908203	81.93262481689453	-266.5087890625	-33.32636642456055	200.4945983886719	-174.8973999023438	359.4604797363281	519.5399780273438	12.86115837097168	349.7506103515625	787.3153076171875	66.61856079101562	335.4698486328125	24.38465690612793	-41.24922943115234	377.0272827148438	402.6161193847656	-10.58645439147949	542.0440063476562	59.71889877319336	-79.27452087402344	487.0094299316406	55.93115615844727	-124.8613967895508	446.3330078125	29.7464771270752	-16.78032684326172	274.0343017578125	29.48956298828125	-100.2744140625	
533	5.32	181.4529571533203	1049.23291015625	-41.52907562255859	180.8827667236328	1052.572021484375	-162.0638427734375	177.6009826660156	1126.564697265625	-115.7197418212891	420.3446960449219	1317.438354492188	-124.7333450317383	169.9279479980469	1253.119750976562	-100.7606506347656	226.9798583984375	1516.331787109375	-99.0230712890625	392.1273193359375	1433.7021484375	-117.6555404663086	159.1531066894531	1372.896362304688	-25.08432579040527	197.2687072753906	1482.12353515625	-208.3143768310547	281.12939453125	1487.5947265625	-273.6974487304688	236.9832153320312	1374.63671875	-351.66357421875	226.2765197753906	1171.493286132812	-401.6101989746094	162.3204956054688	1156.042846679688	-342.8751831054688	301.0677795410156	926.2835083007812	-386.7703247070312	260.6400451660156	920.9946899414062	-460.1886596679688	235.9870300292969	1065.770874023438	-430.3249206542969	282.8414916992188	732.7554931640625	-413.2769775390625	267.0863037109375	830.9750366210938	-466.7189025878906	319.0282592773438	825.4066162109375	-422.67919921875	301.3477478027344	1468.355102539062	61.40810012817383	291.7675170898438	1400.991943359375	127.3454284667969	301.1192321777344	1118.801879882812	164.3944091796875	257.1875610351562	1110.634643554688	80.72146606445312	451.8882446289062	920.5917358398438	93.96401977539062	412.6806945800781	899.5064697265625	165.4089050292969	337.5054626464844	1052.9697265625	170.8499908447266	490.8486938476562	729.0741577148438	82.248291015625	507.178955078125	804.8963012695312	98.49001312255859	464.285888671875	797.64404296875	156.7208404541016	263.5459289550781	1673.69482421875	-58.20761489868164	467.0022583007812	1721.567260742188	-147.6880493164062	464.0343322753906	1720.169311523438	-47.59285736083984	311.7550964355469	1682.754272460938	-189.4029846191406	277.7724304199219	985.906982421875	-303.1615295410156	281.1294555664062	1009.779296875	63.26508331298828	377.5889892578125	1048.3544921875	23.12776374816895	380.3320617675781	1029.753051757812	-258.9848937988281	351.2392272949219	500.90625	-289.9906921386719	338.0193786621094	647.8318481445312	-305.8524169921875	8.184082984924316	156.4543762207031	-232.2284393310547	184.9605560302734	337.4228820800781	-270.0531311035156	189.8081359863281	45.679931640625	-210.8870086669922	139.9983215332031	75.62364196777344	-160.3057403564453	103.2529067993164	83.02606201171875	-267.5466613769531	-25.4436149597168	198.8891906738281	-173.5255737304688	359.4973449707031	519.4603271484375	13.45726776123047	352.0301513671875	787.49169921875	66.98501586914062	335.3525695800781	24.09037017822266	-41.09425354003906	376.693603515625	402.6988525390625	-9.925266265869141	541.6390380859375	60.73820495605469	-78.74002075195312	486.6697082519531	56.88687133789062	-124.4867630004883	446.2548217773438	29.62410926818848	-16.62146759033203	273.8413696289062	29.31290817260742	-100.1344909667969	
534	5.33	184.2395172119141	1049.613037109375	-40.55855560302734	183.3965301513672	1052.934692382812	-161.0794525146484	180.1872100830078	1127.11328125	-114.5174407958984	423.0118408203125	1317.877319335938	-124.4003982543945	172.6318664550781	1253.53369140625	-99.31361389160156	229.7886505126953	1516.7451171875	-97.86872100830078	394.8523559570312	1434.158569335938	-117.2253265380859	162.3988037109375	1373.40283203125	-23.47698020935059	199.5462646484375	1482.475219726562	-207.0228271484375	283.1739807128906	1487.9892578125	-272.7388610839844	239.2160034179688	1374.920043945312	-350.6548461914062	229.8367004394531	1171.825561523438	-401.1463317871094	165.9562225341797	1155.806518554688	-342.4232788085938	307.0929565429688	927.4864501953125	-386.6874389648438	266.7513427734375	921.8114624023438	-460.1004638671875	240.506591796875	1066.25537109375	-430.0382080078125	291.6962585449219	733.8463134765625	-413.6034240722656	274.4127807617188	831.9424438476562	-466.8313293457031	326.4722900390625	827.0201416015625	-422.8479919433594	305.0256958007812	1468.852661132812	62.21182632446289	296.046875	1401.517456054688	128.2812194824219	306.5624694824219	1119.367797851562	165.1958923339844	262.1556396484375	1110.960571289062	81.71968841552734	457.3710632324219	921.279296875	94.66940307617188	418.4611511230469	900.3695068359375	166.3383026123047	343.07470703125	1053.689819335938	171.6975860595703	496.5372619628906	729.76318359375	83.40019226074219	512.9019165039062	805.687744140625	99.33164978027344	470.2315979003906	798.5645141601562	157.7591247558594	266.6221008300781	1674.170043945312	-57.33060455322266	469.9068908691406	1721.888793945312	-147.0770721435547	467.1727294921875	1720.463256835938	-47.03893661499023	314.6133728027344	1683.249145507812	-188.5959625244141	280.1063232421875	986.5831298828125	-302.4253540039062	284.1007995605469	1010.120300292969	64.05216217041016	380.4939270019531	1048.8076171875	23.84785842895508	382.7207946777344	1030.406616210938	-258.3538818359375	357.2648620605469	501.9964294433594	-290.4091186523438	342.7372436523438	648.8295288085938	-306.0331115722656	16.64707374572754	154.9353179931641	-231.6947631835938	191.7311248779297	337.7310180664062	-270.0849914550781	200.7906341552734	48.23049926757812	-213.1295928955078	150.5462493896484	76.12558746337891	-161.6178588867188	112.6454467773438	83.58901214599609	-268.5501403808594	-17.24441146850586	196.5258178710938	-172.4776153564453	359.5180053710938	519.3932495117188	13.99028587341309	354.2529602050781	787.68359375	67.23931121826172	335.2574157714844	23.89233779907227	-40.90556335449219	376.3432006835938	402.7987060546875	-9.306780815124512	541.2258911132812	61.66299819946289	-78.24343109130859	486.3414001464844	57.82957458496094	-124.1201019287109	446.1664733886719	29.49927520751953	-16.44460105895996	273.6446533203125	29.14062118530273	-99.98388671875	
